<defs>
<font horiz-adv-x="633" ><font-face
    font-family="texgyreschola-bold"
    units-per-em="1000"
    panose-1="0 0 8 0 0 0 0 0 0 0"
    ascent="1173"
    descent="-372"
    alphabetic="0" />
<missing-glyph horiz-adv-x="280" />
<glyph unicode=" " glyph-name="space" horiz-adv-x="287" />
<glyph unicode="!" glyph-name="exclam" horiz-adv-x="296" d="M244 637Q244 608 239 585T210 479Q183 386 177 228H124Q119 337 110 393T71 548Q57 595 57 637Q57 684 82 710T151 737T219 711T244 637ZM244 79Q244 40 217 13T149 -15Q112 -15 85 13T57 79T84
144T150 172Q189 172 216 145T244 79Z" />
<glyph unicode="&quot;" glyph-name="quotedbl" horiz-adv-x="333" d="M124 667Q124 653 121 635L79 416H33L-9 635Q-12 653 -12 668Q-12 697 7 717T56 737T104 717T124 667ZM346 667Q346 653 343 635L301 416H255L213 635Q210 653 210 668Q210 697 229 717T278
737T326 717T346 667Z" />
<glyph unicode="#" glyph-name="numbersign" horiz-adv-x="574" d="M533 411H428L413 303H507V220H401L369 0H279L311 220H225L193 0H103L135 220H41V303H147L163 411H67V494H174L204 700H294L264 494H350L379 700H469L440 494H533V411ZM338 411H253L237 303H322L338
411Z" />
<glyph unicode="$" glyph-name="dollar" horiz-adv-x="574" d="M549 211Q549 117 489 59T319 -12V-137H261V-14Q148 -4 87 40T25 153Q25 194 49 220T111 247Q146 247 169 226T192 174Q192 128 157 100Q150 93 150 89Q150 73 183 59T261 41V279L227 290Q130 321
87 365T45 480Q45 569 102 627T261 699V801H319V700Q420 693 479 655T538 557Q538 518 514 493T451 467Q419 467 397 487T375 538Q375 551 386 576T398 607Q398 638 319 646V433L345 425Q453 391 501 341T549 211ZM261 451V645Q165 628 165 549Q165 480 248 455L261
451ZM424 149Q424 229 329 258L319 261V44Q367 49 395 77T424 149Z" />
<glyph unicode="%" glyph-name="percent" horiz-adv-x="833" d="M651 722L237 0H186L535 612Q481 594 433 594Q400 594 367 603Q370 582 370 573Q370 479 302 397T150 315Q92 315 55 351T17 443Q17 535 91 621T252 708Q309 708 346 660Q385 641 438 641Q494 641
533 660T605 722H651ZM330 581Q330 599 324 620Q289 632 266 658Q238 648 223 633T181 569Q121 464 121 416Q121 392 135 377T172 362Q229 362 279 432T330 581ZM821 283Q821 227 793 166T713 59T601 14Q542 14 504 49T466 140Q466 236 538 321T699 407Q752 407
786 372T821 283ZM781 279Q781 311 765 333T724 355Q684 355 641 285Q569 168 569 114Q569 92 584 77T620 61Q678 61 729 131T781 279Z" />
<glyph unicode="&amp;" glyph-name="ampersand" horiz-adv-x="852" d="M822 166Q813 78 761 32T638 -15Q546 -15 480 51Q386 -16 269 -16Q163 -16 101 40T39 179Q39 254 88 307T241 407Q202 488 202 551Q202 632 262 684T418 737Q500 737 550 698T600 594Q600
535 559 495T425 417Q463 352 505 289T565 206Q613 264 613 305Q613 330 592 341T524 354V408H797V354Q744 353 719 335T664 260Q635 205 601 159Q651 93 703 93Q754 93 772 177L822 166ZM440 89Q330 223 265 357Q209 322 209 258Q209 178 262 123T374 67Q409 67
440 89ZM490 589Q490 630 468 657T412 685Q382 685 362 664T342 610Q342 559 397 464Q490 506 490 589Z" />
<glyph unicode="&apos;" glyph-name="quotesingle" horiz-adv-x="241" d="M188 667Q188 653 185 635L143 416H97L55 635Q52 653 52 668Q52 697 71 717T120 737T168 717T188 667Z" />
<glyph unicode="(" glyph-name="parenleft" horiz-adv-x="389" d="M338 -118Q212 -53 142 61T72 310Q72 443 141 557T338 737V687Q262 633 230 542T197 309T229 76T338 -68V-118Z" />
<glyph unicode=")" glyph-name="parenright" horiz-adv-x="389" d="M316 309Q316 176 246 62T50 -118V-68Q126 -14 158 77T191 310T159 543T50 687V737Q175 671 245 557T316 309Z" />
<glyph unicode="*" glyph-name="asterisk" horiz-adv-x="500" d="M447 429Q447 410 434 398T402 385Q382 385 369 395T331 439Q311 467 280 485L264 495V476Q264 452 268 438T289 387Q299 368 299 351Q299 328 285 313T251 297T217 312T203 350Q203 366 223 409Q239
440 239 476V495L223 485Q202 472 191 461T159 419Q136 384 103 384Q84 384 70 397T56 430Q56 464 89 479Q105 485 144 487Q180 490 210 507L226 517L210 526Q187 539 173 542T120 548Q91 550 74 565T56 604Q56 623 70 636T104 650Q126 650 144 634Q152 626 172
596Q194 566 223 549L239 539V558Q239 582 235 596T213 647Q203 666 203 684Q203 706 217 721T251 737T285 721T300 683Q300 667 280 625Q264 594 264 558V539L280 549Q303 563 313 573T344 615Q367 650 400 650Q420 650 433 637T447 604Q447 572 414 555Q403 550
359 546Q326 545 293 526L277 517L293 508Q316 495 330 492T382 486Q411 484 429 468T447 429Z" />
<glyph unicode="+" glyph-name="plus" horiz-adv-x="606" d="M562 200H353V-9H253V200H44V300H253V509H353V300H562V200Z" />
<glyph unicode="," glyph-name="comma" horiz-adv-x="278" d="M236 52Q236 -84 67 -186L40 -145Q139 -76 139 -16Q139 -10 135 -10H131Q129 -11 123 -11Q87 -11 63 13T39 75Q39 116 67 144T135 173Q180 173 208 140T236 52Z" />
<glyph unicode="-" glyph-name="hyphen" horiz-adv-x="333" d="M291 180H42V310H291V180Z" />
<glyph unicode="." glyph-name="period" horiz-adv-x="278" d="M233 118T233 79T206 13T138 -15Q100 -15 73 13T45 79Q45 118 72 145T139 173T205 146Z" />
<glyph unicode="/" glyph-name="slash" horiz-adv-x="278" d="M302 737L51 -15H-23L228 737H302Z" />
<glyph unicode="0" glyph-name="zero" horiz-adv-x="574" d="M546 342Q546 190 472 88T287 -14Q175 -14 101 88T27 347T101 605T287 708Q402 708 474 602T546 342ZM372 345Q372 471 365 536T339 628T286 656Q232 656 216 592T199 347Q199 164 216 101T286 38Q339
38 355 102T372 345Z" />
<glyph unicode="1" glyph-name="one" horiz-adv-x="574" d="M491 0H92V54H124Q195 54 207 69Q212 75 213 85T214 144V499Q214 561 203 572T125 583H83V639Q249 642 336 708H371V144Q371 96 372 86T378 69Q389 54 459 54H491V0Z" />
<glyph unicode="2" glyph-name="two" horiz-adv-x="574" d="M531 266L508 -4Q468 0 447 0H71Q54 0 19 -4V43Q57 97 96 144T220 279Q299 363 328 417T358 534Q358 590 329 620T248 651Q210 651 177 630T144 585Q144 573 160 566Q195 549 210 529T225 476Q225 437
202 414T140 391Q95 391 68 422T41 506Q41 591 110 649T282 708Q388 708 458 654T528 520Q528 445 474 375Q453 348 417 321T275 225Q219 187 175 150H368Q416 151 426 152T443 158Q455 165 466 216L477 266H531Z" />
<glyph unicode="3" glyph-name="three" horiz-adv-x="574" d="M530 193Q530 93 457 40T266 -14Q158 -14 91 33T24 156Q24 198 49 224T114 251Q151 251 176 227T201 168Q201 147 194 134T164 98Q154 89 154 80Q154 64 181 51T240 38Q295 38 325 79T356 196Q356
338 263 338Q262 338 254 337T230 334T197 332Q181 332 171 342T161 370Q161 403 197 403Q201 403 232 398T273 392Q308 392 329 430T350 532Q350 591 324 623T250 656Q222 656 198 644T174 618Q174 613 181 606Q221 569 221 531Q221 496 199 474T140 452Q101 452
75 478T49 543Q49 613 114 660T276 708Q382 708 447 660T512 531Q512 408 351 368Q443 356 486 314T530 193Z" />
<glyph unicode="4" glyph-name="four" horiz-adv-x="574" d="M546 181H446V144Q446 96 447 86T453 68Q465 54 515 54H536V0H195V54H216Q271 54 282 68Q287 75 288 85T289 144V181H19V255L383 708H452L446 556V248H546V181ZM289 248V498L92 248H289Z" />
<glyph unicode="5" glyph-name="five" horiz-adv-x="574" d="M535 234Q535 124 459 55T259 -14Q155 -14 93 31T31 151Q31 197 57 225T127 253Q165 253 188 231T212 171Q212 146 200 130T158 99Q146 92 146 85Q146 69 173 56T234 43Q294 43 325 90T357 229Q357
392 244 392Q179 392 133 354Q135 342 135 338Q135 322 123 310T94 298Q78 298 68 308T57 335Q57 354 83 380L106 708Q187 691 301 691Q424 691 482 705Q491 708 498 708Q506 708 506 697Q506 632 442 584T283 536Q228 536 157 551L142 422Q226 460 286 460Q394
460 464 396T535 234Z" />
<glyph unicode="6" glyph-name="six" horiz-adv-x="574" d="M549 223Q549 120 477 53T295 -14Q174 -14 102 71T29 306Q29 481 115 594T342 708Q428 708 479 670T530 568Q530 527 505 503T437 478Q398 478 374 499T349 555Q349 572 363 600T377 633Q377 656 334
656Q275 656 239 578T202 361Q233 397 266 412T348 427Q437 427 493 370T549 223ZM375 212Q375 349 296 352Q248 352 228 313T208 194Q208 117 230 75T293 33Q375 33 375 212Z" />
<glyph unicode="7" glyph-name="seven" horiz-adv-x="574" d="M546 666Q435 430 407 333T378 97Q378 43 352 15T279 -14Q237 -14 212 13T187 84Q187 143 240 246Q249 264 367 447L435 548L303 545Q284 545 235 547T171 549Q144 549 135 533T110 448L100 403L45
409L79 708Q205 694 318 694Q458 694 546 708V666Z" />
<glyph unicode="8" glyph-name="eight" horiz-adv-x="574" d="M546 215Q546 112 472 49T276 -14Q162 -14 95 34T27 163Q27 224 59 258T165 316Q49 378 49 495Q49 592 118 650T304 708Q401 708 461 665T521 553Q521 457 403 411Q546 354 546 215ZM396 542Q396 595
367 625T287 656Q241 656 210 629T179 560Q179 505 217 480T347 432L354 438Q396 475 396 542ZM422 155Q422 208 388 229T239 283Q226 287 219 289Q184 260 171 234T157 166Q157 106 191 72T287 38Q346 38 384 71T422 155Z" />
<glyph unicode="9" glyph-name="nine" horiz-adv-x="574" d="M545 386Q545 211 463 99T231 -14Q146 -14 96 21T45 114Q45 157 72 185T140 214Q177 214 200 192T224 133Q224 108 204 76Q198 67 198 58Q198 38 232 38Q302 38 335 109T369 329Q310 263 223 263Q138
263 82 321T25 468Q25 572 95 640T275 708Q392 708 468 621T545 386ZM365 482Q365 558 345 607T283 656Q198 656 198 491Q198 338 282 338Q320 338 342 377T365 482Z" />
<glyph unicode=":" glyph-name="colon" horiz-adv-x="278" d="M244 79Q244 40 217 13T149 -15Q112 -15 85 13T57 79T84 144T150 172Q189 172 216 145T244 79ZM244 388Q244 349 217 322T149 294Q112 294 85 322T57 388T84 453T150 481Q189 481 216 454T244 388Z" />
<glyph unicode=";" glyph-name="semicolon" horiz-adv-x="278" d="M244 53Q244 -83 75 -185L48 -145Q147 -75 147 -16Q147 -10 143 -10H139Q137 -11 131 -11Q95 -11 71 13T47 75Q47 117 74 145T143 174Q188 174 216 141T244 53ZM239 388Q239 349 212 322T144 294Q107
294 80 322T52 388T79 453T145 481Q184 481 211 454T239 388Z" />
<glyph unicode="&lt;" glyph-name="less" horiz-adv-x="606" d="M518 -29L65 206V294L518 529V417L197 250L518 83V-29Z" />
<glyph unicode="=" glyph-name="equal" horiz-adv-x="606" d="M562 290H44V390H562V290ZM562 110H44V210H562V110Z" />
<glyph unicode="&gt;" glyph-name="greater" horiz-adv-x="606" d="M518 206L65 -29V83L386 250L65 417V529L518 294V206Z" />
<glyph unicode="?" glyph-name="question" horiz-adv-x="500" d="M476 559Q476 482 421 435L328 363Q282 327 269 304T254 228H200Q197 252 197 270Q197 304 208 331T260 433Q300 505 300 570Q300 623 276 651T206 680Q183 680 168 673T153 655Q153 653 165 641T191
608T204 568Q204 533 180 511T118 488Q77 488 50 514T23 581Q23 650 86 693T248 737Q353 737 414 689T476 559ZM323 118T323 79T296 13T228 -15Q190 -15 163 13T135 79Q135 118 162 145T229 173T295 146Z" />
<glyph unicode="@" glyph-name="at" horiz-adv-x="747" d="M722 426Q722 317 649 233T480 148Q445 148 424 163T403 204Q403 206 405 220Q365 145 292 145Q236 145 198 188T160 294Q160 394 226 483T385 573Q418 573 438 562T478 522L490 556H594L502 268Q495
247 495 231Q495 209 519 209Q573 209 615 275T658 419Q658 531 582 603T388 676Q259 676 174 588T88 366Q88 230 174 138T389 46Q469 46 535 83T644 190H713Q675 96 581 41T387 -15Q235 -15 130 95T24 362Q24 518 130 627T389 737Q528 737 625 647T722 426ZM453
476Q453 494 439 507T406 521Q355 521 309 427T263 256Q263 197 309 197Q358 197 393 280Q413 328 433 392T453 476Z" />
<glyph unicode="A" glyph-name="A" horiz-adv-x="759" d="M778 0H427V54L444 55Q481 57 491 61T502 79Q503 87 490 120L452 218H203L187 180Q170 139 171 123Q171 89 194 73T271 54V0H-18V54Q26 59 58 92T124 207L351 737H427L684 117Q700 79 717 68T778 54V0ZM427
285L330 524L229 285H427Z" />
<glyph unicode="B" glyph-name="B" horiz-adv-x="778" d="M736 189Q736 139 707 95T630 30Q563 0 422 0H17V54H32Q102 54 114 69Q119 75 120 85T121 144V578Q121 627 120 637T114 654Q101 668 32 668H17V722H403Q492 722 537 714T624 682Q661 661 682 625T703
545Q703 477 655 437T506 380Q617 365 676 316T736 189ZM522 541Q522 603 488 635T387 668H357Q328 668 315 658T301 610V398H350Q442 398 482 435T522 541ZM545 200Q545 273 505 308T370 343H301V118Q301 73 310 64T362 54H392Q468 54 506 92T545 200Z" />
<glyph unicode="C" glyph-name="C" horiz-adv-x="778" d="M723 250Q694 116 617 51T406 -15Q235 -15 135 95Q40 200 40 352Q40 520 146 628T418 737Q471 737 511 726T601 684L655 733H698L708 447L655 441Q621 566 565 625T426 685Q334 685 287 605T239 370Q239
205 288 126T439 47Q525 47 583 104T661 265L723 250Z" />
<glyph unicode="D" glyph-name="D" horiz-adv-x="833" d="M793 369Q793 266 758 187T655 61Q567 0 387 0H19V54H34Q104 54 116 69Q121 75 122 85T123 144V578Q123 626 122 636T116 653Q104 668 34 668H19V722H375Q481 722 543 710T650 668Q793 574 793 369ZM594
371Q594 668 388 668H363Q327 668 315 656T303 608V119Q303 79 314 67T363 54H384Q495 54 544 129T594 371Z" />
<glyph unicode="E" glyph-name="E" horiz-adv-x="759" d="M707 269L695 0H16V54H31Q101 54 113 69Q118 75 119 85T120 144V578Q120 626 119 636T113 653Q101 668 31 668H16V722H687L693 462H641Q617 546 583 594Q529 668 414 668H386Q326 668 310 646Q300 631
300 582V401H337Q382 401 414 438T455 543H509V204H455Q447 271 415 308T337 346H300V124Q300 83 316 68Q325 59 339 57T390 54H420Q511 54 567 105T654 269H707Z" />
<glyph unicode="F" glyph-name="F" horiz-adv-x="722" d="M690 462H638Q614 547 580 594Q526 668 411 668H392Q332 668 316 646Q306 631 306 582V401H343Q389 401 421 438T461 543H515V204H461Q453 271 421 308T343 346H306V144Q306 96 307 86T313 69Q325 54 396
54H422V0H22V54H37Q107 54 119 69Q124 75 125 85T126 144V578Q126 626 125 636T119 653Q107 668 37 668H22V722H684L690 462Z" />
<glyph unicode="G" glyph-name="G" horiz-adv-x="833" d="M817 282Q746 281 735 268Q730 262 729 251T728 192V-14H675L626 84Q589 46 556 26Q483 -15 388 -15Q233 -15 136 86T39 350Q39 511 138 616Q250 737 425 737Q479 737 521 725T616 683L675 733H719L728
446H675Q650 560 588 622T437 685Q393 685 356 665T296 610Q239 518 239 356Q239 211 280 123Q299 82 334 60T416 37Q484 37 524 81T564 206Q564 262 553 272T481 282H462V336H817V282Z" />
<glyph unicode="H" glyph-name="H" horiz-adv-x="870" d="M850 0H461V54H476Q546 54 558 69Q563 75 564 85T565 144V339H304V144Q304 95 305 85T311 69Q323 54 394 54H409V0H20V54H35Q105 54 117 69Q122 75 123 85T124 144V577Q124 626 123 636T117 653Q105 668
35 668H20V722H409V668H394Q323 668 311 653Q306 647 305 637T304 577V399H565V577Q565 626 564 636T558 653Q546 668 476 668H461V722H850V668H835Q764 668 752 653Q747 647 746 637T745 577V144Q745 95 746 85T752 69Q764 54 835 54H850V0Z" />
<glyph unicode="I" glyph-name="I" horiz-adv-x="444" d="M417 0H28V54H43Q113 54 125 69Q130 75 131 85T132 144V578Q132 626 131 636T125 653Q113 668 43 668H28V722H417V668H402Q331 668 319 653Q314 647 313 637T312 578V144Q312 95 313 85T319 69Q331 54
402 54H417V0Z" />
<glyph unicode="J" glyph-name="J" horiz-adv-x="648" d="M639 668H624Q553 668 541 653Q536 647 535 637T534 578V280Q534 -15 246 -15Q134 -15 69 37T4 182Q4 246 39 288T128 330Q173 330 202 301T231 228Q231 187 205 161T139 134Q133 134 120 136T103 139Q84
139 84 120Q84 91 119 69T202 46Q241 46 274 62T327 105Q354 144 354 245V578Q354 627 353 637T347 653Q335 668 265 668H250V722H639V668Z" />
<glyph unicode="K" glyph-name="K" horiz-adv-x="815" d="M818 0H454V54H467Q535 54 535 77Q535 88 523 109L383 338L299 250V144Q299 96 300 86T306 69Q318 54 389 54H404V0H15V54H30Q100 54 112 69Q117 75 118 85T119 144V578Q119 626 118 636T112 653Q100 668
30 668H15V722H404V668H389Q318 668 306 653Q301 647 300 637T299 578V344L520 578Q551 611 553 633Q553 668 478 668H454V722H791V668Q741 665 697 640T588 550L505 463L713 131Q746 77 761 67T818 54V0Z" />
<glyph unicode="L" glyph-name="L" horiz-adv-x="722" d="M701 269L689 0H19V54H34Q104 54 116 69Q121 75 122 85T123 145V578Q123 626 122 636T116 653Q104 668 34 668H19V722H415V668H393Q322 668 310 653Q305 647 304 637T303 578V124Q303 83 319 68Q328 59
342 57T393 54H414Q520 54 583 129Q621 175 648 269H701Z" />
<glyph unicode="M" glyph-name="M" horiz-adv-x="981" d="M965 0H583V54H594Q665 54 677 69Q682 75 683 85T684 144V643L463 0H411L184 633V217Q184 150 189 124T210 81Q234 56 294 54V0H9V54Q67 55 91 81Q107 98 112 124T117 217V578Q117 626 116 636T110 653Q98
668 27 668H16V722H338L493 292L639 722H965V668H954Q883 668 871 653Q866 647 865 637T864 578V144Q864 96 865 86T871 69Q883 54 954 54H965V0Z" />
<glyph unicode="N" glyph-name="N" horiz-adv-x="833" d="M833 668Q773 666 749 641Q733 624 728 598T723 505V-7H656L191 546V217Q191 151 196 125T217 82Q240 58 301 55V1H16V55Q44 56 58 58T87 69T109 95T120 142T124 217V611Q86 665 18 667V722H270L656 270V505Q656
571 651 597T630 641Q606 667 548 668V722H833V668Z" />
<glyph unicode="O" glyph-name="O" horiz-adv-x="833" d="M794 351Q794 194 690 90T412 -15Q249 -15 144 88T39 350Q39 512 145 624T417 737Q581 737 687 625T794 351ZM594 350Q594 505 550 595T418 685Q239 685 239 369Q239 218 283 128T418 37Q504 37 549 117T594 350Z" />
<glyph unicode="P" glyph-name="P" horiz-adv-x="759" d="M735 521Q735 310 420 310H308V144Q308 95 309 85T315 68Q328 54 398 54H420V0H24V54H39Q108 54 121 68Q126 75 127 85T128 144V577Q128 626 127 636T121 653Q108 667 39 667H24V722H421Q581 722 658 674T735
521ZM542 522Q542 597 508 632T403 667H363Q329 667 319 656T308 607V365H366Q463 365 502 400T542 522Z" />
<glyph unicode="Q" glyph-name="Q" horiz-adv-x="833" d="M808 -18Q808 -91 760 -139T636 -188Q562 -188 517 -148T472 -55V-10Q442 -15 409 -15Q254 -15 146 95T38 363Q38 522 146 629T416 737Q572 737 681 628T790 363Q790 266 745 182T620 44Q641 -35 660 -65T705
-95Q728 -95 739 -78T754 -18H808ZM590 370Q590 511 547 598T414 685Q238 685 238 379Q238 253 259 189Q298 290 403 290Q520 290 565 175Q590 241 590 370ZM477 100Q477 164 454 198T387 233Q348 233 324 205T299 132Q299 89 330 63T411 37Q442 37 474 53Q477
86 477 100Z" />
<glyph unicode="R" glyph-name="R" horiz-adv-x="815" d="M817 164Q817 83 772 34T647 -15Q582 -15 541 15T487 104Q480 141 473 229Q467 303 443 325T360 347H304V145Q304 96 305 86T311 69Q324 55 394 55H420V1H20V55H35Q104 55 117 69Q122 76 123 86T124 145V578Q124
627 123 637T117 654Q104 668 35 668H20V722H447Q587 722 644 686Q725 633 725 541Q725 466 677 424T525 361Q590 340 621 303T665 197L672 159Q681 97 688 83T717 69Q761 69 763 164H817ZM534 536Q534 604 502 636T399 668H375Q327 668 316 658T304 604V402H359Q459
402 496 431T534 536Z" />
<glyph unicode="S" glyph-name="S" horiz-adv-x="667" d="M633 223Q633 118 560 52T369 -15Q253 -15 164 52L102 -7H57L51 276H102Q143 163 213 100T369 37Q434 37 473 69T513 154Q513 210 469 234Q441 249 361 264L299 276Q181 298 117 360T52 514Q52 614 123
675T311 737Q411 737 491 683L543 729H588L601 470H548Q459 685 302 685Q243 685 205 656T167 580Q167 518 235 494Q260 485 337 470L385 459Q515 430 574 374T633 223Z" />
<glyph unicode="T" glyph-name="T" horiz-adv-x="722" d="M707 451H654Q634 560 595 611Q549 670 487 670Q465 670 458 663T451 629V144Q451 96 452 86T458 69Q470 54 541 54H563V0H159V54H181Q252 54 264 69Q269 75 270 85T271 144V629Q271 655 264 662T235 670Q166
670 119 599Q85 550 68 451H15L30 722H692L707 451Z" />
<glyph unicode="U" glyph-name="U" horiz-adv-x="833" d="M824 668Q764 666 740 641Q724 624 719 598T714 505V304Q714 216 707 173T678 96Q641 38 581 12T424 -15Q208 -15 145 100Q119 148 119 261V578Q119 626 118 636T112 653Q100 668 30 668H15V722H404V668H389Q318
668 306 653Q301 647 300 637T299 578V258Q299 144 338 102T460 60Q586 60 630 155Q647 192 647 304V505Q647 572 642 598T621 641Q597 667 539 668V722H824V668Z" />
<glyph unicode="V" glyph-name="V" horiz-adv-x="759" d="M778 668Q689 659 640 541L411 -15H323L80 599Q63 642 45 655T-18 668V722H344V668H323Q261 668 261 643Q261 634 270 610L429 206L571 562Q580 584 580 600Q580 668 483 668V722H778V668Z" />
<glyph unicode="W" glyph-name="W" horiz-adv-x="981" d="M973 668Q928 659 908 634T865 534L691 -15H618L493 392L361 -15H286L82 610Q70 646 55 657T6 668V722H316V668Q281 666 269 661T257 643Q257 632 265 609L381 251L461 502L425 615Q415 647 403 656T361
668V722H657V668Q621 666 610 661T598 641Q598 632 604 614L711 258L798 543Q811 586 811 604Q811 635 790 651T721 668V722H973V668Z" />
<glyph unicode="X" glyph-name="X" horiz-adv-x="722" d="M735 0H375V54Q412 55 426 60T441 78Q441 92 428 112L319 268L231 156Q211 131 211 106Q211 80 236 68T319 54V0H-12V54Q32 56 60 73T132 144L279 325L74 617Q53 647 37 656T-12 668V722H346V668Q302 666
290 662T278 644Q278 632 288 618L393 467L463 553Q497 594 497 617Q497 668 401 668V722H709V668Q669 664 639 647T577 591L431 413L608 155Q654 88 674 72T735 54V0Z" />
<glyph unicode="Y" glyph-name="Y" horiz-adv-x="722" d="M735 668Q654 662 601 575L451 318V144Q451 96 452 86T458 69Q470 54 541 54H563V0H159V54H181Q252 54 264 69Q269 75 270 85T271 144V305L67 632Q54 654 38 661T-12 668V722H348V668H332Q276 668 276
646Q276 634 288 615L420 396L520 574Q532 594 534 620Q534 642 514 655T461 668H440V722H735V668Z" />
<glyph unicode="Z" glyph-name="Z" horiz-adv-x="667" d="M634 276L618 0H24V58L425 667H351Q271 667 229 650T154 586Q123 544 100 470H49L61 722H634V666L233 55H322Q413 55 452 75Q500 99 534 151T581 276H634Z" />
<glyph unicode="[" glyph-name="bracketleft" horiz-adv-x="389" d="M339 -108H84V722H339V672H207V-58H339V-108Z" />
<glyph unicode="\" glyph-name="backslash" horiz-adv-x="606" d="M555 0H481L50 737H124L555 0Z" />
<glyph unicode="]" glyph-name="bracketright" horiz-adv-x="389" d="M286 -108H31V-58H163V672H31V722H286V-108Z" />
<glyph unicode="^" glyph-name="asciicircum" horiz-adv-x="606" d="M554 318H435L304 568L171 318H52L261 722H346L554 318Z" />
<glyph unicode="_" glyph-name="underscore" horiz-adv-x="500" d="M500 -148H0V-58H500V-148Z" />
<glyph unicode="`" glyph-name="grave" horiz-adv-x="333" d="M249 535H185L38 622Q2 643 2 674Q2 695 18 709T59 724Q81 724 95 715T136 673L249 535Z" />
<glyph unicode="a" glyph-name="a" horiz-adv-x="611" d="M597 68Q597 36 564 11T487 -15Q408 -15 381 56Q341 17 298 1T190 -15Q117 -15 77 16T36 102Q36 173 96 209T326 282Q338 283 359 289V341Q359 393 341 414T277 436Q247 436 225 427T203 404L214 382Q226
361 226 349Q226 321 203 303T144 284T86 305T63 359Q63 418 125 453T291 488Q405 488 460 450T516 318V142Q516 98 521 84T543 70Q548 70 562 77T582 84Q597 84 597 68ZM359 179V235L306 223Q203 200 203 123Q203 91 220 72T267 53Q309 53 334 87T359 179Z" />
<glyph unicode="b" glyph-name="b" horiz-adv-x="648" d="M612 245Q612 129 541 57T356 -15Q250 -15 183 66L118 -14H69Q83 63 83 206V578Q83 645 74 658T19 671H0V722L240 737V413Q299 488 395 488Q490 488 551 420T612 245ZM439 233Q439 413 345 413Q239 413
239 212Q239 127 265 82T340 37Q439 37 439 233Z" />
<glyph unicode="c" glyph-name="c" horiz-adv-x="556" d="M527 160Q472 -15 300 -15Q179 -15 105 52T31 229Q31 342 111 415T317 488Q408 488 462 451T516 352Q516 314 492 291T426 267Q390 267 367 287T344 340Q344 363 365 389Q376 402 376 408Q376 420 361
428T323 436Q267 436 236 386T204 247Q204 154 237 104T332 53Q383 53 416 83T475 177L527 160Z" />
<glyph unicode="d" glyph-name="d" horiz-adv-x="667" d="M654 11L420 0V72Q361 -15 256 -15Q158 -15 98 52T37 229T103 413T265 488Q356 488 411 421V578Q411 645 402 658T347 671H315V722L568 737V122Q568 83 580 72Q588 65 627 65H654V11ZM413 237Q413 320
385 370T311 420Q263 420 237 370T210 231Q210 146 236 100T309 53Q355 53 384 104T413 237Z" />
<glyph unicode="e" glyph-name="e" horiz-adv-x="574" d="M540 144Q475 -15 302 -15Q179 -15 106 54T32 232T108 414T301 488Q410 488 475 422T540 244V228H205Q205 137 242 95T341 53Q390 53 425 79T491 164L540 144ZM383 315Q383 436 304 436Q259 436 233 395T206
283H356Q371 283 377 290T383 315Z" />
<glyph unicode="f" glyph-name="f" horiz-adv-x="389" d="M464 624Q464 589 441 566T384 542Q352 542 331 562T309 611Q309 626 324 649T339 673Q339 681 323 681Q308 681 293 670T270 641Q258 615 258 530V473H383V413H258V97Q258 67 271 59T333 50H351V0H21V50H35Q82
50 91 57T101 97V413H14V473H101V486Q101 597 161 665T319 733Q381 733 422 702T464 624Z" />
<glyph unicode="g" glyph-name="g" horiz-adv-x="611" d="M623 473Q623 446 605 428T561 409Q541 409 524 423T507 454V458Q507 463 502 463Q485 463 465 435Q498 408 511 383T525 322Q525 245 466 202T292 159H274Q231 159 215 152T198 126Q198 108 210 103T263
97H332Q458 97 511 69T564 -36Q564 -116 489 -159T274 -202Q30 -202 30 -104Q30 -69 58 -46T136 -15Q45 10 45 78Q45 155 161 176Q51 214 51 317Q51 391 117 439T287 488Q363 488 421 459Q484 538 549 538Q582 538 602 520T623 473ZM363 320Q363 436 290 436Q213
436 213 326Q213 207 289 207Q324 207 343 237T363 320ZM434 -89Q434 -72 430 -64T401 -49T328 -43H197Q160 -59 160 -92Q160 -120 191 -135T281 -150Q434 -150 434 -89Z" />
<glyph unicode="h" glyph-name="h" horiz-adv-x="685" d="M666 0H361V51Q405 51 417 59T430 97V297Q430 395 359 395Q331 395 307 379T271 336Q256 303 256 241V98Q256 67 268 59T324 51V0H19V51H33Q80 51 89 58T99 97V574Q98 645 90 658T35 671H16V722L256 737V396Q316
488 426 488Q507 488 549 440Q587 399 587 311V98Q587 66 596 59T652 51H666V0Z" />
<glyph unicode="i" glyph-name="i" horiz-adv-x="370" d="M341 0H28V51H42Q87 51 96 58T106 98V321Q106 388 97 401T42 415H28V466L263 473V97Q263 66 272 59T325 51H341V0ZM255 630Q255 600 234 580T184 559T135 580T114 630T135 679T185 700T234 679T255 630Z" />
<glyph unicode="j" glyph-name="j" horiz-adv-x="352" d="M268 109Q268 -34 233 -101Q210 -147 163 -174T58 -202Q-3 -202 -42 -174T-82 -102Q-82 -70 -60 -49T-4 -27Q24 -27 42 -46T61 -94Q61 -125 32 -144Q40 -155 58 -155Q111 -155 111 -56V329Q111 389 101
402T47 415H15V466L268 473V109ZM254 630Q254 600 233 580T183 559T134 580T113 630T134 679T184 700Q212 700 233 679T254 630Z" />
<glyph unicode="k" glyph-name="k" horiz-adv-x="667" d="M660 0H354V51H367Q403 51 403 71Q403 86 390 102L298 213L252 172V98Q252 68 264 60T320 51V0H15V51H29Q76 51 85 58T95 97V578Q95 645 86 658T31 671H12V722L252 737V246L376 354Q401 376 401 394Q401
422 341 422H329V473H623V422H600Q547 422 492 375L415 311L572 115Q605 72 619 62T660 51V0Z" />
<glyph unicode="l" glyph-name="l" horiz-adv-x="352" d="M331 0H19V51H33Q80 51 89 58T99 97V578Q99 645 90 658T35 671H16V722L256 737V97Q256 66 271 58Q283 51 317 51H331V0Z" />
<glyph unicode="m" glyph-name="m" horiz-adv-x="963" d="M942 0H648V51Q686 52 696 60T706 97V306Q706 395 651 395Q609 395 585 363T560 278V97Q560 68 570 60T618 51V0H346V51Q383 52 393 60T403 98V302Q403 351 390 373T348 395Q307 395 282 363T257 278V97Q257
68 267 60T315 51V0H20V51H35Q81 51 90 58T100 98V321Q100 388 91 401T36 415H20V466L248 473V394Q308 488 408 488Q458 488 495 464T549 398Q584 446 621 467T706 488Q773 488 818 447T863 343V97Q863 66 872 59T928 51H942V0Z" />
<glyph unicode="n" glyph-name="n" horiz-adv-x="685" d="M668 0H363V51Q407 51 419 59T432 97V297Q432 395 359 395Q332 395 308 379T272 336Q256 304 256 241V97Q256 68 268 60T325 51V0H20V51H34Q80 51 89 58T99 98V318Q99 388 90 401T35 415H20V466L249 473V385Q286
441 327 464T427 488Q509 488 551 440Q589 399 589 311V98Q589 66 598 59T654 51H668V0Z" />
<glyph unicode="o" glyph-name="o" horiz-adv-x="611" d="M579 341T579 234T501 56T304 -15T109 56T31 236Q31 344 110 416T308 488Q422 488 500 415ZM406 235Q406 436 306 436Q204 436 204 236Q204 37 305 37Q353 37 379 88T406 235Z" />
<glyph unicode="p" glyph-name="p" horiz-adv-x="667" d="M632 249Q632 137 565 61T396 -15Q313 -15 254 50V-105Q254 -136 266 -144T326 -152H341V-202H18V-152H32Q78 -152 87 -145T97 -105V318Q96 389 88 402T33 415H18V466L254 473V409Q288 452 323 470T410
488Q506 488 569 420T632 249ZM459 232Q459 413 366 413Q311 413 282 366T253 229Q253 144 280 99T358 53Q405 53 432 100T459 232Z" />
<glyph unicode="q" glyph-name="q" horiz-adv-x="648" d="M640 -202H317V-152H331Q379 -152 391 -144T404 -105V58Q341 -15 250 -15Q206 -15 164 3T95 53Q67 84 51 133T34 232Q34 342 106 415T289 488Q398 488 463 407L527 487H576Q561 368 561 272V-105Q561 -137
570 -144T626 -152H640V-202ZM407 253Q407 330 390 372Q378 401 356 418T308 436Q207 436 207 236Q207 53 304 53Q352 53 379 106T407 253Z" />
<glyph unicode="r" glyph-name="r" horiz-adv-x="519" d="M517 387Q517 350 493 326T431 301Q399 301 378 322T356 375Q356 398 373 422Q326 408 297 357Q255 283 255 164V98Q255 67 268 59T330 51H352V0H18V51H32Q78 51 87 58T97 98V318Q97 388 88 401T33 415H18V466L241
473V352Q294 488 407 488Q455 488 486 460T517 387Z" />
<glyph unicode="s" glyph-name="s" horiz-adv-x="500" d="M466 155Q466 80 410 33T265 -15Q183 -15 124 20L85 2H43L38 175H83Q153 37 265 37Q305 37 328 53T351 96Q351 139 281 154L208 170Q124 188 84 227Q42 267 42 326Q42 397 96 442T235 488Q304 488 359
456L396 478H439L443 320H396Q359 381 322 408T236 436Q199 436 176 420T152 378Q152 359 164 349T214 329L304 307Q358 294 380 284T423 257Q466 219 466 155Z" />
<glyph unicode="t" glyph-name="t" horiz-adv-x="426" d="M405 163Q405 87 361 36T236 -15Q148 -15 115 40Q102 61 98 87T94 174V413H23V465Q164 481 188 671H251V473H381V413H251V156Q251 105 258 88T288 70Q351 70 351 186H404Q405 176 405 163Z" />
<glyph unicode="u" glyph-name="u" horiz-adv-x="685" d="M667 11L434 0V82Q391 29 351 7T257 -15Q151 -15 109 71Q99 92 96 113T93 191V318Q92 389 84 402T29 415H13V466L250 473V185Q250 128 266 103T321 78Q349 78 373 93T410 135Q427 168 427 238V318Q427
388 418 401T363 415H347V466L584 473V108Q584 81 594 73T639 65H667V11Z" />
<glyph unicode="v" glyph-name="v" horiz-adv-x="611" d="M598 423H589Q560 423 543 405T503 335L349 -14H264L80 370Q64 403 52 412T12 423V473H294V423Q242 423 242 400Q242 390 250 374L357 140L430 324Q448 368 448 384Q448 405 430 414T371 423V473H598V423Z" />
<glyph unicode="w" glyph-name="w" horiz-adv-x="889" d="M876 422Q842 420 823 403T782 337L625 -14H550L443 249L329 -14H253L90 366Q76 398 62 409T19 422V473H295V422Q265 421 256 417T246 398Q246 393 253 375L340 154L412 324L387 384Q377 407 366 414T326
422V473H605V422H593Q565 422 555 417T544 399Q544 390 550 377L642 154L712 324Q726 358 726 376Q726 422 662 422H650V473H876V422Z" />
<glyph unicode="x" glyph-name="x" horiz-adv-x="611" d="M598 0H284V51H296Q331 51 331 74Q331 84 320 96L261 167L201 108Q187 94 187 79Q187 51 234 51H247V0H13V51Q55 52 102 97L223 212L80 383Q61 406 49 413T13 422V473H309V422H298Q265 422 265 406Q265
397 276 385L333 316L384 365Q405 385 405 399Q405 422 365 422H342V473H588V422Q530 422 474 370L370 272L508 108Q538 71 554 62T598 51V0Z" />
<glyph unicode="y" glyph-name="y" horiz-adv-x="611" d="M598 422Q567 420 548 403T507 340L332 -37Q291 -126 244 -166T134 -206Q78 -206 44 -181T10 -114Q10 -77 35 -52T97 -27Q130 -27 151 -46T172 -95Q172 -104 168 -115T163 -132Q163 -138 172 -138Q214
-139 257 -59L280 -16L75 382Q62 407 52 414T14 422V473H298V422H280Q245 422 245 401Q245 390 253 374L359 158L442 341Q451 363 451 382Q451 422 388 422H373V473H598V422Z" />
<glyph unicode="z" glyph-name="z" horiz-adv-x="537" d="M495 190L485 0H35V44L307 423H256Q204 423 184 418T146 395Q127 375 102 293H51L63 473H495V425L225 50H287Q338 50 357 57T397 88Q427 125 446 190H495Z" />
<glyph unicode="{" glyph-name="braceleft" horiz-adv-x="389" d="M343 -108H291Q221 -108 191 -77T160 42V152Q160 202 158 217T148 247Q139 262 126 269T84 285V329Q104 334 111 336T130 344T145 357T153 379T159 413T160 462V572Q160 659 190 690T291 722H343V676Q310
673 297 658T283 606V432Q283 374 262 348T181 307Q240 292 261 266T283 182V64Q283 -1 284 -13T292 -37Q305 -58 343 -62V-108Z" />
<glyph unicode="|" glyph-name="bar" horiz-adv-x="606" d="M353 -108H253V722H353V-108Z" />
<glyph unicode="}" glyph-name="braceright" horiz-adv-x="389" d="M290 285Q255 276 243 268T223 235T216 152V42Q216 -45 186 -76T85 -108H31V-62Q70 -58 83 -37Q90 -26 91 -14T93 64V182Q93 240 114 266T195 307Q136 322 115 348T93 432V606Q93 641 79 657T31
676V722H85Q155 722 185 691T216 572V462Q216 418 218 394T232 357T253 340T290 329V285Z" />
<glyph unicode="~" glyph-name="asciitilde" horiz-adv-x="606" d="M555 273Q493 160 411 160Q383 160 321 183L268 202Q211 222 202 221Q185 221 171 210T135 169L51 222Q111 335 195 335Q219 335 285 312L338 293Q391 273 404 274Q421 274 435 285T471 326L555 273Z" />
<glyph unicode="&#xa0;" glyph-name="uni00A0" horiz-adv-x="333" />
<glyph unicode="&#xa1;" glyph-name="exclamdown" horiz-adv-x="296" d="M239 -164Q239 -211 214 -237T145 -264T77 -238T52 -164Q52 -135 57 -112T86 -6Q113 87 119 245H172Q177 136 186 80T225 -75Q239 -122 239 -164ZM239 432T239 394T212 329T146 301Q107
301 80 328T52 394Q52 433 79 460T147 488Q184 488 211 460Z" />
<glyph unicode="&#xa2;" glyph-name="cent" horiz-adv-x="574" d="M534 158Q503 69 446 28T295 -14Q247 -14 213 -3L156 -107H98L165 16Q103 50 70 105T36 229Q36 340 117 414T320 488Q370 488 415 474L466 567H522L460 454Q523 415 523 353Q523 315 499 290T436
265Q396 265 372 291L259 83Q288 54 339 54Q445 54 482 174L534 158ZM384 410Q384 421 369 428T331 436Q275 436 242 384T209 241Q209 186 229 133L361 375Q362 377 368 383T379 397T384 410Z" />
<glyph unicode="&#xa3;" glyph-name="sterling" horiz-adv-x="574" d="M561 186Q543 89 498 38T384 -14Q307 -14 231 50Q187 -14 117 -14Q73 -14 46 11T19 77Q19 118 49 146T126 174Q157 174 196 161Q197 171 197 184Q197 211 186 251T158 318H34V378H136Q112
449 112 500Q112 590 178 649T345 708Q431 708 487 663T543 548Q543 505 516 477T448 449Q414 449 392 471T369 526Q369 567 409 588Q433 601 433 612Q433 630 411 643T357 656Q316 656 291 631T265 566Q265 514 304 378H459V318H313Q317 287 317 273Q317 213 280
139Q336 119 392 119Q439 119 467 138T510 200L561 186ZM182 92Q148 122 116 122Q95 122 82 110T69 79Q69 61 81 50T113 38Q159 38 182 92Z" />
<glyph unicode="&#xa4;" glyph-name="currency" horiz-adv-x="574" d="M540 175L462 97L419 140Q355 102 287 102Q217 102 154 140L111 98L34 175L76 218Q38 279 38 350Q38 426 76 483L33 526L111 604L154 561Q213 599 287 599Q354 599 419 561L462 604L540 526L497
484Q535 422 535 350Q535 281 497 218L540 175ZM415 351Q415 403 378 440T287 478T196 441T158 351T195 261T285 223Q340 223 377 260T415 351Z" />
<glyph unicode="&#xa5;" glyph-name="yen" horiz-adv-x="574" d="M571 668Q515 662 480 575L393 359H486V299H376V233H486V173H376V144Q376 77 381 69Q389 54 439 54H454V0H119V54H134Q183 54 191 69Q196 77 196 144V173H85V233H196V299H85V359H173L57 632Q47
653 36 660T3 668V722H273V668H267Q241 668 241 649Q241 640 252 615L345 396L417 574Q427 600 427 621T416 655T385 668H365V722H571V668Z" />
<glyph unicode="&#xa6;" glyph-name="brokenbar" horiz-adv-x="606" d="M353 390H253V722H353V390ZM353 -108H253V224H353V-108Z" />
<glyph unicode="&#xa7;" glyph-name="section" horiz-adv-x="500" d="M438 313Q438 261 408 224T333 187H327Q368 150 383 121T398 52Q398 -11 355 -49T241 -87Q180 -87 140 -59T99 13Q99 42 116 60T161 79Q184 79 199 64T215 26Q215 14 201 -5T186 -27Q186 -39
201 -47T238 -55Q273 -55 295 -38T318 7Q318 36 291 63Q285 69 237 110L124 208Q63 260 63 335Q63 389 94 424T177 464Q134 503 120 528T106 593Q106 658 146 697T255 737Q314 737 350 709T386 634Q386 609 370 593T329 577Q305 577 289 591T273 627Q273 637 286
656T299 681Q299 691 286 698T253 705Q224 705 203 688T181 645Q181 611 237 565L343 478Q438 399 438 313ZM363 278Q363 307 320 344L269 388Q227 425 195 425Q171 425 155 410T138 372Q138 355 146 341T179 306L233 258Q269 225 307 225Q330 225 346 240T363
278Z" />
<glyph unicode="&#xa8;" glyph-name="dieresis" horiz-adv-x="333" d="M130 631Q130 601 109 581T59 560T10 581T-11 631T10 680T60 701Q88 701 109 681T130 631ZM345 631Q345 601 324 581T274 560T225 581T204 631T225 680T275 701T324 681T345 631Z" />
<glyph unicode="&#xa9;" glyph-name="copyright" horiz-adv-x="747" d="M728 485T728 339T624 90T374 -14T125 89T21 339T124 589T374 693T624 589ZM680 212T680 339T591 555T374 645T158 556T69 339T158 123T374 34T590 123ZM561 289Q531 156 389 156Q294 156
239 211Q188 262 188 335Q188 418 247 470T396 523Q446 523 490 499L517 521H547L552 378L514 374Q482 487 400 487Q314 487 314 344Q314 269 336 233T407 197Q450 197 479 223T517 298L561 289Z" />
<glyph unicode="&#xaa;" glyph-name="ordfeminine" horiz-adv-x="367" d="M365 485Q365 465 344 450T294 435Q244 435 225 475Q171 435 101 435Q54 435 28 453T1 505Q1 556 70 584Q106 598 210 617V648Q210 679 198 692T158 705Q139 705 125 700T110 686Q110 685
117 672T124 653Q124 637 109 626T71 614Q48 614 33 627T18 659Q18 694 58 715T166 737Q240 737 276 714T313 635V529Q313 503 316 495T331 487Q334 487 343 490T356 494Q365 494 365 485ZM210 551V585L176 578Q111 564 111 518Q111 499 122 488T152 476Q178 476
194 496T210 551ZM335 293H9V353H335V293Z" />
<glyph unicode="&#xab;" glyph-name="guillemotleft" horiz-adv-x="500" d="M243 112Q243 108 239 104T230 100Q222 100 202 120L49 252V266L202 399Q221 419 231 419Q235 419 239 415T243 407Q243 399 224 366L160 259L224 152Q243 120 243 112ZM442 112Q442
108 438 104T429 100Q421 100 401 120L248 252V266L401 399Q420 419 430 419Q434 419 438 415T442 407Q442 399 423 366L359 259L423 152Q442 120 442 112Z" />
<glyph unicode="&#xac;" glyph-name="logicalnot" horiz-adv-x="606" d="M562 390V160H462V290H44V390H562Z" />
<glyph unicode="&#xad;" glyph-name="uni00AD" horiz-adv-x="333" d="M291 180H42V310H291V180Z" />
<glyph unicode="&#xae;" glyph-name="registered" horiz-adv-x="747" d="M728 485T728 339T624 90T374 -14T125 89T21 339T124 589T374 693T624 589ZM680 212T680 339T591 555T374 645T158 556T69 339T158 123T374 34T590 123ZM588 252Q589 210 562 185T489 159Q409
159 394 220Q390 248 387 280Q385 311 375 320T339 330H321V240Q321 210 324 207T357 204H374V166H160V204H170Q200 204 203 207T206 240V445Q206 475 203 478Q200 482 170 482H160V519H385Q462 519 495 500Q540 474 540 428Q540 361 449 341Q498 321 509 266L513
248Q517 220 518 215T525 210Q546 210 546 252H588ZM419 425Q419 482 360 482H347Q329 482 325 478T321 457V368H339Q385 368 402 380T419 425Z" />
<glyph unicode="&#xaf;" glyph-name="overscore" horiz-adv-x="333" d="M339 590H-5V670H339V590Z" />
<glyph unicode="0;" glyph-name="degree" horiz-adv-x="400" d="M350 533Q350 469 307 425T200 380T94 424T50 534Q50 598 94 642T203 686Q265 686 307 642T350 533ZM293 493T293 533T267 601T202 629Q162 629 134 601T106 533T134 465T200 437Q239 437 266 465Z" />
<glyph unicode="1;" glyph-name="plusminus" horiz-adv-x="606" d="M562 300H353V190H253V300H44V400H253V609H353V400H562V300ZM562 0H44V100H562V0Z" />
<glyph unicode="2;" glyph-name="two.superior" horiz-adv-x="344" d="M338 447L322 281Q282 283 281 283H41L5 281V313Q47 369 131 453Q181 502 199 533T217 599Q217 666 150 666Q128 666 108 655T87 630Q87 625 95 622Q141 605 141 566Q141 543 125 529T84
514Q55 514 37 533T19 585Q19 637 64 672T174 708Q241 708 286 675T332 593Q332 542 300 508T171 416Q141 397 116 378L263 379Q276 380 280 385T290 415L297 447H338Z" />
<glyph unicode="3;" glyph-name="three.superior" horiz-adv-x="344" d="M336 401Q336 343 290 309T165 275Q95 275 52 303T8 378Q8 405 25 421T68 438Q93 438 109 423T126 386Q126 363 100 342Q95 337 95 333Q95 326 112 319T148 312Q183 312 202 335T221
403Q221 483 164 483Q160 483 141 481L121 479Q109 479 102 486T94 505Q94 528 120 528Q123 528 143 524T170 520Q214 520 214 600Q214 634 199 652T155 671Q140 671 126 665T111 652Q111 654 117 646T131 625T138 601Q138 578 123 564T84 550Q59 550 42 566T24
607Q24 650 66 679T171 708Q239 708 281 679T324 600Q324 565 303 544T236 505Q293 493 314 467T336 401Z" />
<glyph unicode="4;" glyph-name="acute" horiz-adv-x="333" d="M331 674Q331 643 295 622L148 535H84L197 673Q223 705 237 714T274 724Q298 724 314 710T331 674Z" />
<glyph unicode="5;" glyph-name="mu" horiz-adv-x="685" d="M667 11L434 0V82Q354 -15 266 -15Q193 -15 153 40Q153 2 155 -10T171 -53Q200 -120 200 -144Q200 -178 180 -198T125 -219T70 -199T49 -147Q49 -123 75 -56Q93 -11 93 20V318Q92 389 84 402T29
415H13V466L250 473V185Q250 128 266 103T321 78Q349 78 373 93T410 135Q427 168 427 238V318Q427 388 418 401T363 415H347V466L584 473V131Q584 83 591 74T639 65H667V11Z" />
<glyph unicode="6;" glyph-name="paragraph" horiz-adv-x="747" d="M713 -144H155V-90H179Q236 -90 248 -76Q252 -70 253 -61T254 -3V325L245 324Q151 324 93 378T35 521Q35 619 93 670T268 722H713V667H693Q667 667 656 665T636 653T628 620V-3Q628 -52 629
-61T635 -76Q647 -90 693 -90H713V-144ZM476 -89V667H406V-89H476Z" />
<glyph unicode="7;" glyph-name="middot" horiz-adv-x="278" d="M233 289T233 250T206 184T139 156T73 183T45 250T72 316T139 344T205 317Z" />
<glyph unicode="8;" glyph-name="cedilla" horiz-adv-x="333" d="M251 -132Q251 -172 212 -197T112 -222Q62 -222 17 -203L35 -158Q72 -175 98 -175Q121 -175 134 -165T147 -136Q147 -120 136 -111T106 -102Q94 -102 83 -108L64 -98L111 5H156L127 -61Q153
-56 168 -56Q203 -56 227 -77T251 -132Z" />
<glyph unicode="9;" glyph-name="one.superior" horiz-adv-x="344" d="M304 284H39V323H70Q113 323 119 330Q123 334 123 373V582Q123 616 116 622T70 628H40V668Q148 669 200 708H226V373Q226 334 230 330Q236 323 280 323H304V284Z" />
<glyph unicode="a;" glyph-name="ordmasculine" horiz-adv-x="367" d="M357 648T357 584T306 478T179 435Q102 435 52 477T1 585T52 693T181 737Q254 737 305 693ZM247 584Q247 705 180 705Q111 705 111 586T178 467Q211 467 229 497T247 584ZM342 293H16V353H342V293Z"
/>
<glyph unicode="b;" glyph-name="guillemotright" horiz-adv-x="500" d="M251 252L97 120Q77 100 68 100Q64 100 60 104T56 112Q56 122 75 152L139 259L75 366Q56 396 56 407Q56 411 60 415T69 419Q77 419 97 399L251 266V252ZM451 252L297 120Q277 100 268
100Q264 100 260 104T256 112Q256 122 275 152L339 259L275 366Q256 396 256 407Q256 411 260 415T269 419Q277 419 297 399L451 266V252Z" />
<glyph unicode="c;" glyph-name="onequarter" horiz-adv-x="861" d="M677 722L258 0H178L598 722H677ZM822 107H756V88Q756 50 760 46Q766 39 804 39H815V0H594V39H604Q643 39 649 46Q653 50 653 88V107H483V156L712 424H760L756 331V154H822V107ZM304 284H39V323H70Q113
323 119 330Q123 334 123 373V582Q123 616 117 621T70 628H40V668Q148 669 200 708H226V373Q226 334 230 330Q236 323 280 323H304V284ZM653 154V288L540 154H653Z" />
<glyph unicode="d;" glyph-name="onehalf" horiz-adv-x="861" d="M672 722L252 0H173L593 722H672ZM304 284H39V323H70Q113 323 119 330Q123 334 123 373V582Q123 616 117 621T70 628H40V668Q148 669 200 708H226V373Q226 334 230 330Q236 323 280 323H304V284ZM832
164L816 -2Q776 0 775 0H535L499 -2V30Q537 81 625 170Q675 219 693 250T711 317Q711 349 694 366T644 383Q622 383 602 372T581 347Q581 342 589 339Q635 322 635 283Q635 260 619 246T578 231Q549 231 531 250T513 302Q513 354 558 389T668 425Q735 425 780 392T826
310Q826 240 746 184Q718 165 665 133Q638 117 610 95H725L757 96Q770 97 773 102T784 132L791 164H832Z" />
<glyph unicode="e;" glyph-name="threequarters" horiz-adv-x="861" d="M701 722L281 0H202L621 722H701ZM822 107H756V88Q756 50 760 46Q766 39 804 39H815V0H594V39H604Q643 39 649 46Q653 50 653 88V107H483V156L712 424H760L756 331V154H822V107ZM336
401Q336 343 290 309T165 275Q95 275 52 303T8 378Q8 405 25 421T68 438Q93 438 109 423T126 386Q126 363 100 342Q95 337 95 333Q95 326 112 319T148 312Q183 312 202 335T221 403Q221 483 164 483Q160 483 141 481L121 479Q109 479 102 486T94 505Q94 528 120
528Q127 528 147 524Q160 520 170 520Q214 520 214 600Q214 634 199 652T155 671Q140 671 126 665T111 652Q111 650 124 636Q138 620 138 601Q138 578 123 564T84 550Q59 550 42 566T24 607Q24 650 66 679T171 708Q239 708 281 679T324 600Q324 540 256 513Q254
512 253 512T247 509T236 505Q289 494 309 473Q336 443 336 401ZM653 154V288L540 154H653Z" />
<glyph unicode="f;" glyph-name="questiondown" horiz-adv-x="500" d="M477 -108Q477 -177 414 -220T252 -264Q147 -264 86 -216T24 -86Q24 -9 79 38L172 110Q218 146 231 169T246 245H300Q303 221 303 203Q303 169 292 142T240 40Q200 -32 200 -97Q200 -150
224 -178T294 -207Q317 -207 332 -200T347 -182Q347 -180 335 -168T309 -135T296 -95Q296 -60 320 -38T382 -15Q423 -15 450 -41T477 -108ZM365 394Q365 355 338 328T271 300T205 327T177 394T204 460T272 488Q310 488 337 460T365 394Z" />
<glyph unicode="0;" glyph-name="Agrave" horiz-adv-x="759" d="M778 0H427V54L444 55Q481 57 491 61T502 79Q503 87 490 120L452 218H203L187 180Q170 139 171 123Q171 89 194 73T271 54V0H-18V54Q26 59 58 92T124 207L351 737H427L684 117Q700 79 717 68T778
54V0ZM427 285L330 524L229 285H427ZM504 773H427L251 852Q208 871 208 899Q208 918 228 931T276 944Q303 944 319 936T368 898L504 773Z" />
<glyph unicode="1;" glyph-name="Aacute" horiz-adv-x="759" d="M778 0H427V54L444 55Q481 57 491 61T502 79Q503 87 490 120L452 218H203L187 180Q170 139 171 123Q171 89 194 73T271 54V0H-18V54Q26 59 58 92T124 207L351 737H427L684 117Q700 79 717 68T778
54V0ZM427 285L330 524L229 285H427ZM570 899Q570 871 527 852L351 773H274L410 898Q442 927 458 935T502 944Q530 944 550 931T570 899Z" />
<glyph unicode="2;" glyph-name="Acircumflex" horiz-adv-x="759" d="M778 0H427V54L444 55Q481 57 491 61T502 79Q503 87 490 120L452 218H203L187 180Q170 139 171 123Q171 89 194 73T271 54V0H-18V54Q26 59 58 92T124 207L351 737H427L684 117Q700 79 717
68T778 54V0ZM427 285L330 524L229 285H427ZM599 779H519L389 862L258 779H178L323 939H454L599 779Z" />
<glyph unicode="3;" glyph-name="Atilde" horiz-adv-x="759" d="M778 0H427V54L444 55Q481 57 491 61T502 79Q503 87 490 120L452 218H203L187 180Q170 139 171 123Q171 89 194 73T271 54V0H-18V54Q26 59 58 92T124 207L351 737H427L684 117Q700 79 717 68T778
54V0ZM427 285L330 524L229 285H427ZM581 925Q574 867 538 829T455 790Q429 790 411 796T354 823Q315 844 294 844Q264 844 250 794H200Q209 853 242 891T319 929Q353 929 415 899Q466 875 486 875Q502 875 511 885T532 925H581Z" />
<glyph unicode="4;" glyph-name="Adieresis" horiz-adv-x="759" d="M778 0H427V54L444 55Q481 57 491 61T502 79Q503 87 490 120L452 218H203L187 180Q170 139 171 123Q171 89 194 73T271 54V0H-18V54Q26 59 58 92T124 207L351 737H427L684 117Q700 79 717
68T778 54V0ZM427 285L330 524L229 285H427ZM353 860Q353 830 332 810T282 789T233 810T212 860T233 909T283 930T332 909T353 860ZM568 860Q568 830 547 810T497 789T448 810T427 860T448 909T498 930Q526 930 547 909T568 860Z" />
<glyph unicode="5;" glyph-name="Aring" horiz-adv-x="759" d="M778 0H427V54L444 55Q481 57 491 61T502 79Q503 87 490 120L452 218H203L187 180Q170 139 171 123Q171 89 194 73T271 54V0H-18V54Q26 59 58 92T124 207L351 737H427L684 117Q700 79 717 68T778
54V0ZM427 285L330 524L229 285H427ZM497 875Q497 830 466 799T388 767Q345 767 314 799T282 875T314 950T390 982T465 951T497 875ZM442 875Q442 897 427 913T390 930Q368 930 353 914T337 874Q337 852 352 836T389 819Q411 819 426 835T442 875Z" />
<glyph unicode="6;" glyph-name="AE" horiz-adv-x="981" d="M963 269L952 0H313V54H344Q396 54 408 69Q413 75 414 85T415 144V264H200L151 167Q129 125 129 98Q129 78 148 66T195 54H223V0H-29V54Q2 60 23 82T73 163L270 554Q288 592 288 614Q288 640 267
654T210 668H180V722H946L952 462H900Q876 548 842 594Q818 627 776 647T687 668H666Q621 668 605 646Q595 631 595 582V401H630Q672 401 703 438T743 543H797V204H743Q735 272 704 309T630 347H595V124Q595 81 610 68T671 54H688Q782 54 845 129Q884 177 910 269H963ZM415
319V647Q415 668 405 668Q400 668 397 664T387 645L227 319H415Z" />
<glyph unicode="7;" glyph-name="Ccedilla" horiz-adv-x="778" d="M723 250Q672 -6 422 -15L400 -63Q426 -58 441 -58Q476 -58 500 -79T524 -134Q524 -174 485 -199T385 -224Q335 -224 290 -205L307 -160Q345 -177 371 -177Q394 -177 407 -167T420 -138Q420
-122 409 -113T379 -104Q367 -104 355 -110L337 -100L378 -14Q216 -3 128 101T40 352Q40 520 148 628T418 737Q471 737 511 726T601 684L655 733H708V447L655 441Q621 566 565 625T426 685Q334 685 287 606T239 371Q239 206 288 127T439 48Q525 48 583 105T661
265L723 250Z" />
<glyph unicode="8;" glyph-name="Egrave" horiz-adv-x="759" d="M707 269L695 0H16V54H31Q101 54 113 69Q118 75 119 85T120 144V578Q120 626 119 636T113 653Q101 668 31 668H16V722H687L693 462H641Q617 546 583 594Q529 668 414 668H386Q326 668 310 646Q300
631 300 582V401H337Q382 401 414 438T455 543H509V204H455Q447 271 415 308T337 346H300V124Q300 83 316 68Q325 59 339 57T390 54H420Q511 54 567 105T654 269H707ZM494 773H417L241 852Q198 871 198 899Q198 918 218 931T266 944Q293 944 309 936T358 898L494
773Z" />
<glyph unicode="9;" glyph-name="Eacute" horiz-adv-x="759" d="M707 269L695 0H16V54H31Q101 54 113 69Q118 75 119 85T120 144V578Q120 626 119 636T113 653Q101 668 31 668H16V722H687L693 462H641Q617 546 583 594Q529 668 414 668H386Q326 668 310 646Q300
631 300 582V401H337Q382 401 414 438T455 543H509V204H455Q447 271 415 308T337 346H300V124Q300 83 316 68Q325 59 339 57T390 54H420Q511 54 567 105T654 269H707ZM561 899Q561 871 518 852L342 773H265L401 898Q433 927 449 935T493 944Q521 944 541 931T561
899Z" />
<glyph unicode="a;" glyph-name="Ecircumflex" horiz-adv-x="759" d="M707 269L695 0H16V54H31Q101 54 113 69Q118 75 119 85T120 144V578Q120 626 119 636T113 653Q101 668 31 668H16V722H687L693 462H641Q617 546 583 594Q529 668 414 668H386Q326 668 310
646Q300 631 300 582V401H337Q382 401 414 438T455 543H509V204H455Q447 271 415 308T337 346H300V124Q300 83 316 68Q325 59 339 57T390 54H420Q511 54 567 105T654 269H707ZM590 779H510L380 862L249 779H169L314 939H445L590 779Z" />
<glyph unicode="b;" glyph-name="Edieresis" horiz-adv-x="759" d="M707 269L695 0H16V54H31Q101 54 113 69Q118 75 119 85T120 144V578Q120 626 119 636T113 653Q101 668 31 668H16V722H687L693 462H641Q617 546 583 594Q529 668 414 668H386Q326 668 310
646Q300 631 300 582V401H337Q382 401 414 438T455 543H509V204H455Q447 271 415 308T337 346H300V124Q300 83 316 68Q325 59 339 57T390 54H420Q511 54 567 105T654 269H707ZM343 860Q343 830 322 810T272 789T223 810T202 860T223 909T273 930T322 909T343 860ZM558
860Q558 830 537 810T487 789T438 810T417 860T438 909T488 930Q516 930 537 909T558 860Z" />
<glyph unicode="c;" glyph-name="Igrave" horiz-adv-x="444" d="M417 0H28V54H43Q113 54 125 69Q130 75 131 85T132 144V578Q132 626 131 636T125 653Q113 668 43 668H28V722H417V668H402Q331 668 319 653Q314 647 313 637T312 578V144Q312 95 313 85T319
69Q331 54 402 54H417V0ZM337 773H260L84 852Q41 871 41 899Q41 918 61 931T109 944Q136 944 152 936T201 898L337 773Z" />
<glyph unicode="d;" glyph-name="Iacute" horiz-adv-x="444" d="M417 0H28V54H43Q113 54 125 69Q130 75 131 85T132 144V578Q132 626 131 636T125 653Q113 668 43 668H28V722H417V668H402Q331 668 319 653Q314 647 313 637T312 578V144Q312 95 313 85T319
69Q331 54 402 54H417V0ZM403 899Q403 871 360 852L184 773H107L243 898Q275 927 291 935T335 944Q363 944 383 931T403 899Z" />
<glyph unicode="e;" glyph-name="Icircumflex" horiz-adv-x="444" d="M417 0H28V54H43Q113 54 125 69Q130 75 131 85T132 144V578Q132 626 131 636T125 653Q113 668 43 668H28V722H417V668H402Q331 668 319 653Q314 647 313 637T312 578V144Q312 95 313 85T319
69Q331 54 402 54H417V0ZM432 779H352L222 862L91 779H11L156 939H287L432 779Z" />
<glyph unicode="f;" glyph-name="Idieresis" horiz-adv-x="444" d="M417 0H28V54H43Q113 54 125 69Q130 75 131 85T132 144V578Q132 626 131 636T125 653Q113 668 43 668H28V722H417V668H402Q331 668 319 653Q314 647 313 637T312 578V144Q312 95 313 85T319
69Q331 54 402 54H417V0ZM186 860Q186 830 165 810T115 789T66 810T45 860T66 909T116 930Q144 930 165 909T186 860ZM401 860Q401 830 380 810T330 789T281 810T260 860T281 909T331 930T380 909T401 860Z" />
<glyph unicode="&#xd0;" glyph-name="Eth" horiz-adv-x="833" d="M793 369Q793 266 758 187T655 61Q567 0 387 0H19V54H34Q104 54 116 69Q121 75 122 85T123 144V339H19V399H123V578Q123 626 122 636T116 653Q104 668 34 668H19V722H356Q480 722 541 711T650 668Q793
575 793 369ZM594 369Q594 523 544 595T389 668H363Q329 668 316 657T303 608V399H447V339H303V119Q303 79 314 67T363 54H385Q496 54 545 129T594 369Z" />
<glyph unicode="&#xd1;" glyph-name="Ntilde" horiz-adv-x="833" d="M833 668Q773 666 749 641Q733 624 728 598T723 505V-7H656L191 546V217Q191 151 196 125T217 82Q240 58 301 55V1H16V55Q44 56 58 58T87 69T109 95T120 142T124 217V611Q86 665 18 667V722H270L656
270V505Q656 571 651 597T630 641Q606 667 548 668V722H833V668ZM608 925Q601 867 565 829T482 790Q456 790 438 796T381 823Q342 844 321 844Q291 844 277 794H227Q236 853 269 891T346 929Q380 929 442 899Q493 875 513 875Q529 875 538 885T559 925H608Z" />
<glyph unicode="&#xd2;" glyph-name="Ograve" horiz-adv-x="833" d="M794 351Q794 194 690 90T412 -15Q249 -15 144 88T39 350Q39 512 145 624T417 737Q581 737 687 625T794 351ZM594 350Q594 505 550 595T418 685Q239 685 239 369Q239 218 283 128T418 37Q504
37 549 117T594 350ZM531 773H454L278 852Q235 871 235 899Q235 918 255 931T303 944Q330 944 346 936T395 898L531 773Z" />
<glyph unicode="&#xd3;" glyph-name="Oacute" horiz-adv-x="833" d="M794 351Q794 194 690 90T412 -15Q249 -15 144 88T39 350Q39 512 145 624T417 737Q581 737 687 625T794 351ZM594 350Q594 505 550 595T418 685Q239 685 239 369Q239 218 283 128T418 37Q504
37 549 117T594 350ZM598 899Q598 871 555 852L379 773H302L438 898Q470 927 486 935T530 944Q558 944 578 931T598 899Z" />
<glyph unicode="&#xd4;" glyph-name="Ocircumflex" horiz-adv-x="833" d="M794 351Q794 194 690 90T412 -15Q249 -15 144 88T39 350Q39 512 145 624T417 737Q581 737 687 625T794 351ZM594 350Q594 505 550 595T418 685Q239 685 239 369Q239 218 283 128T418 37Q504
37 549 117T594 350ZM627 779H547L417 862L286 779H206L351 939H482L627 779Z" />
<glyph unicode="&#xd5;" glyph-name="Otilde" horiz-adv-x="833" d="M794 351Q794 194 690 90T412 -15Q249 -15 144 88T39 350Q39 512 145 624T417 737Q581 737 687 625T794 351ZM594 350Q594 505 550 595T418 685Q239 685 239 369Q239 218 283 128T418 37Q504
37 549 117T594 350ZM608 925Q601 867 565 829T482 790Q456 790 438 796T381 823Q342 844 321 844Q291 844 277 794H227Q236 853 269 891T346 929Q380 929 442 899Q493 875 513 875Q529 875 538 885T559 925H608Z" />
<glyph unicode="&#xd6;" glyph-name="Odieresis" horiz-adv-x="833" d="M794 351Q794 194 690 90T412 -15Q249 -15 144 88T39 350Q39 512 145 624T417 737Q581 737 687 625T794 351ZM594 350Q594 505 550 595T418 685Q239 685 239 369Q239 218 283 128T418 37Q504
37 549 117T594 350ZM380 860Q380 830 359 810T309 789T260 810T239 860T260 909T310 930Q338 930 359 909T380 860ZM595 860Q595 830 574 810T524 789T475 810T454 860T475 909T525 930T574 909T595 860Z" />
<glyph unicode="&#xd7;" glyph-name="multiply" horiz-adv-x="606" d="M521 102L451 32L303 179L155 32L85 102L232 250L85 398L155 468L303 321L451 468L521 398L374 250L521 102Z" />
<glyph unicode="&#xd8;" glyph-name="Oslash" horiz-adv-x="833" d="M793 365Q793 209 685 97T413 -15Q299 -15 213 39L156 -40H91L170 71Q39 187 39 363Q39 523 148 630T421 738Q527 738 613 688L666 762H731L656 657Q720 605 756 527T793 365ZM549 599Q505 686
417 686T284 607T239 372Q239 269 258 193L549 599ZM593 373Q593 470 573 541L279 132Q301 82 334 60T420 37Q470 37 505 62T558 136T585 242T593 373Z" />
<glyph unicode="&#xd9;" glyph-name="Ugrave" horiz-adv-x="833" d="M824 668Q764 666 740 641Q724 624 719 598T714 505V304Q714 216 707 173T678 96Q641 38 581 12T424 -15Q208 -15 145 100Q119 148 119 261V578Q119 626 118 636T112 653Q100 668 30 668H15V722H404V668H389Q318
668 306 653Q301 647 300 637T299 578V258Q299 144 338 102T460 60Q586 60 630 155Q647 192 647 304V505Q647 572 642 598T621 641Q597 667 539 668V722H824V668ZM531 773H454L278 852Q235 871 235 899Q235 918 255 931T303 944Q330 944 346 936T395 898L531 773Z"
/>
<glyph unicode="&#xda;" glyph-name="Uacute" horiz-adv-x="833" d="M824 668Q764 666 740 641Q724 624 719 598T714 505V304Q714 216 707 173T678 96Q641 38 581 12T424 -15Q208 -15 145 100Q119 148 119 261V578Q119 626 118 636T112 653Q100 668 30 668H15V722H404V668H389Q318
668 306 653Q301 647 300 637T299 578V258Q299 144 338 102T460 60Q586 60 630 155Q647 192 647 304V505Q647 572 642 598T621 641Q597 667 539 668V722H824V668ZM598 899Q598 871 555 852L379 773H302L438 898Q470 927 486 935T530 944Q558 944 578 931T598 899Z"
/>
<glyph unicode="&#xdb;" glyph-name="Ucircumflex" horiz-adv-x="833" d="M824 668Q764 666 740 641Q724 624 719 598T714 505V304Q714 216 707 173T678 96Q641 38 581 12T424 -15Q208 -15 145 100Q119 148 119 261V578Q119 626 118 636T112 653Q100 668 30 668H15V722H404V668H389Q318
668 306 653Q301 647 300 637T299 578V258Q299 144 338 102T460 60Q586 60 630 155Q647 192 647 304V505Q647 572 642 598T621 641Q597 667 539 668V722H824V668ZM627 779H547L417 862L286 779H206L351 939H482L627 779Z" />
<glyph unicode="&#xdc;" glyph-name="Udieresis" horiz-adv-x="833" d="M824 668Q764 666 740 641Q724 624 719 598T714 505V304Q714 216 707 173T678 96Q641 38 581 12T424 -15Q208 -15 145 100Q119 148 119 261V578Q119 626 118 636T112 653Q100 668 30 668H15V722H404V668H389Q318
668 306 653Q301 647 300 637T299 578V258Q299 144 338 102T460 60Q586 60 630 155Q647 192 647 304V505Q647 572 642 598T621 641Q597 667 539 668V722H824V668ZM380 860Q380 830 359 810T309 789T260 810T239 860T260 909T310 930Q338 930 359 909T380 860ZM595
860Q595 830 574 810T524 789T475 810T454 860T475 909T525 930T574 909T595 860Z" />
<glyph unicode="&#xdd;" glyph-name="Yacute" horiz-adv-x="722" d="M735 668Q654 662 601 575L451 318V144Q451 96 452 86T458 69Q470 54 541 54H563V0H159V54H181Q252 54 264 69Q269 75 270 85T271 144V305L67 632Q54 654 38 661T-12 668V722H348V668H332Q276
668 276 646Q276 634 288 615L420 396L520 574Q532 594 534 620Q534 642 514 655T461 668H440V722H735V668ZM542 899Q542 871 499 852L323 773H246L382 898Q414 927 430 935T474 944Q502 944 522 931T542 899Z" />
<glyph unicode="&#xde;" glyph-name="Thorn" horiz-adv-x="759" d="M735 377Q735 166 420 166H308V144Q308 96 309 86T315 69Q327 54 398 54H413V0H24V54H39Q109 54 121 69Q126 75 127 85T128 144V578Q128 626 127 636T121 654Q108 668 39 668H24V722H413V668H398Q328
668 315 654Q308 645 308 578H421Q581 578 658 530T735 377ZM543 379Q543 455 510 489T403 523H363Q330 523 319 511T308 463V221H367Q464 221 503 256T543 379Z" />
<glyph unicode="&#xdf;" glyph-name="germandbls" horiz-adv-x="611" d="M575 215Q575 116 516 51T367 -15Q331 -15 293 0V63Q324 37 354 37Q414 37 414 218Q414 395 342 392L316 391Q300 394 295 398T290 413Q290 422 297 431T311 440L338 437Q370 443 380 470T391
560Q391 625 372 655T313 686Q272 686 257 656T242 541V0H6V51H10Q58 51 71 59T85 98V497Q85 623 139 680T313 737Q420 737 478 694T537 574Q537 519 505 480T415 422Q490 405 532 350T575 215Z" />
<glyph unicode="&#xe0;" glyph-name="agrave" horiz-adv-x="611" d="M597 68Q597 36 564 11T487 -15Q408 -15 381 56Q341 17 298 1T190 -15Q117 -15 77 16T36 102Q36 173 96 209T326 282Q338 283 359 289V341Q359 393 341 414T277 436Q247 436 225 427T203 404L214
382Q226 361 226 349Q226 321 203 303T144 284T86 305T63 359Q63 418 125 453T291 488Q405 488 460 450T516 318V142Q516 98 521 84T543 70Q548 70 562 77T582 84Q597 84 597 68ZM359 179V235L306 223Q203 200 203 123Q203 91 220 72T267 53Q309 53 334 87T359
179ZM388 535H324L177 622Q141 643 141 674Q141 695 157 709T198 724Q220 724 234 715T275 673L388 535Z" />
<glyph unicode="&#xe1;" glyph-name="aacute" horiz-adv-x="611" d="M597 68Q597 36 564 11T487 -15Q408 -15 381 56Q341 17 298 1T190 -15Q117 -15 77 16T36 102Q36 173 96 209T326 282Q338 283 359 289V341Q359 393 341 414T277 436Q247 436 225 427T203 404L214
382Q226 361 226 349Q226 321 203 303T144 284T86 305T63 359Q63 418 125 453T291 488Q405 488 460 450T516 318V142Q516 98 521 84T543 70Q548 70 562 77T582 84Q597 84 597 68ZM359 179V235L306 223Q203 200 203 123Q203 91 220 72T267 53Q309 53 334 87T359
179ZM470 674Q470 643 434 622L287 535H223L336 673Q362 705 376 714T413 724Q437 724 453 710T470 674Z" />
<glyph unicode="&#xe2;" glyph-name="acircumflex" horiz-adv-x="611" d="M597 68Q597 36 564 11T487 -15Q408 -15 381 56Q341 17 298 1T190 -15Q117 -15 77 16T36 102Q36 173 96 209T326 282Q338 283 359 289V341Q359 393 341 414T277 436Q247 436 225 427T203
404L214 382Q226 361 226 349Q226 321 203 303T144 284T86 305T63 359Q63 418 125 453T291 488Q405 488 460 450T516 318V142Q516 98 521 84T543 70Q548 70 562 77T582 84Q597 84 597 68ZM359 179V235L306 223Q203 200 203 123Q203 91 220 72T267 53Q309 53 334
87T359 179ZM481 541H414L306 634L197 541H130L251 719H360L481 541Z" />
<glyph unicode="&#xe3;" glyph-name="atilde" horiz-adv-x="611" d="M597 68Q597 36 564 11T487 -15Q408 -15 381 56Q341 17 298 1T190 -15Q117 -15 77 16T36 102Q36 173 96 209T326 282Q338 283 359 289V341Q359 393 341 414T277 436Q247 436 225 427T203 404L214
382Q226 361 226 349Q226 321 203 303T144 284T86 305T63 359Q63 418 125 453T291 488Q405 488 460 450T516 318V142Q516 98 521 84T543 70Q548 70 562 77T582 84Q597 84 597 68ZM359 179V235L306 223Q203 200 203 123Q203 91 220 72T267 53Q309 53 334 87T359
179ZM497 696Q490 638 454 600T371 561Q345 561 327 567T270 594Q231 615 210 615Q180 615 166 565H116Q125 624 158 662T235 700Q269 700 331 670Q382 646 402 646Q418 646 427 656T448 696H497Z" />
<glyph unicode="&#xe4;" glyph-name="adieresis" horiz-adv-x="611" d="M597 68Q597 36 564 11T487 -15Q408 -15 381 56Q341 17 298 1T190 -15Q117 -15 77 16T36 102Q36 173 96 209T326 282Q338 283 359 289V341Q359 393 341 414T277 436Q247 436 225 427T203
404L214 382Q226 361 226 349Q226 321 203 303T144 284T86 305T63 359Q63 418 125 453T291 488Q405 488 460 450T516 318V142Q516 98 521 84T543 70Q548 70 562 77T582 84Q597 84 597 68ZM359 179V235L306 223Q203 200 203 123Q203 91 220 72T267 53Q309 53 334
87T359 179ZM269 631Q269 601 248 581T198 560T149 581T128 631T149 680T199 701T248 681T269 631ZM484 631Q484 601 463 581T413 560T364 581T343 631T364 680T414 701Q442 701 463 681T484 631Z" />
<glyph unicode="&#xe5;" glyph-name="aring" horiz-adv-x="611" d="M597 68Q597 36 564 11T487 -15Q408 -15 381 56Q341 17 298 1T190 -15Q117 -15 77 16T36 102Q36 173 96 209T326 282Q338 283 359 289V341Q359 393 341 414T277 436Q247 436 225 427T203 404L214
382Q226 361 226 349Q226 321 203 303T144 284T86 305T63 359Q63 418 125 453T291 488Q405 488 460 450T516 318V142Q516 98 521 84T543 70Q548 70 562 77T582 84Q597 84 597 68ZM359 179V235L306 223Q203 200 203 123Q203 91 220 72T267 53Q309 53 334 87T359
179ZM413 631Q413 586 382 555T304 523Q261 523 230 555T198 631T230 706T306 738T381 707T413 631ZM358 631Q358 653 343 669T306 686Q284 686 269 670T253 630Q253 608 268 592T305 575Q327 575 342 591T358 631Z" />
<glyph unicode="&#xe6;" glyph-name="ae" horiz-adv-x="870" d="M837 242Q837 234 836 228H501Q506 53 637 53Q686 53 722 79T787 164L836 144Q772 -15 602 -15Q475 -15 401 76Q314 -15 185 -15Q111 -15 70 16T29 103Q29 146 55 177T137 234Q173 250 201 257T320
283Q335 286 353 290V342Q353 393 335 414T271 436Q241 436 219 427T197 404L208 383Q220 362 220 349Q220 322 197 304T138 285Q104 285 81 306T57 359Q57 417 119 452T281 488Q390 488 450 437Q518 488 606 488Q710 488 773 421T837 242ZM353 179V236L300 223Q245
210 221 187T196 123Q196 91 213 72T261 53Q303 53 328 87T353 179ZM680 315Q680 374 660 405T601 436Q555 436 529 395T502 283H652Q668 283 674 290T680 315Z" />
<glyph unicode="&#xe7;" glyph-name="ccedilla" horiz-adv-x="556" d="M527 160Q500 74 443 30T305 -15L283 -61Q309 -56 324 -56Q360 -56 383 -77T407 -132Q407 -172 368 -197T268 -222Q218 -222 173 -203L191 -158Q228 -175 254 -175Q277 -175 290 -165T303
-136Q303 -120 292 -111T262 -102Q250 -102 239 -108L220 -98L261 -13Q154 0 93 64T31 229Q31 342 111 415T317 488Q408 488 462 451T516 352Q516 314 492 291T426 267Q390 267 367 287T344 340Q344 363 365 389Q376 402 376 408Q376 420 361 428T323 436Q267 436
236 387T204 248Q204 156 237 106T333 55Q383 55 417 85T475 177L527 160Z" />
<glyph unicode="&#xe8;" glyph-name="egrave" horiz-adv-x="574" d="M540 144Q475 -15 302 -15Q179 -15 106 54T32 232T108 414T301 488Q410 488 475 422T540 244V228H205Q205 137 242 95T341 53Q390 53 425 79T491 164L540 144ZM383 315Q383 436 304 436Q259
436 233 395T206 283H356Q371 283 377 290T383 315ZM370 535H306L159 622Q123 643 123 674Q123 695 139 709T180 724Q202 724 216 715T257 673L370 535Z" />
<glyph unicode="&#xe9;" glyph-name="eacute" horiz-adv-x="574" d="M540 144Q475 -15 302 -15Q179 -15 106 54T32 232T108 414T301 488Q410 488 475 422T540 244V228H205Q205 137 242 95T341 53Q390 53 425 79T491 164L540 144ZM383 315Q383 436 304 436Q259
436 233 395T206 283H356Q371 283 377 290T383 315ZM451 674Q451 643 415 622L268 535H204L317 673Q343 705 357 714T394 724Q418 724 434 710T451 674Z" />
<glyph unicode="&#xea;" glyph-name="ecircumflex" horiz-adv-x="574" d="M540 144Q475 -15 302 -15Q179 -15 106 54T32 232T108 414T301 488Q410 488 475 422T540 244V228H205Q205 137 242 95T341 53Q390 53 425 79T491 164L540 144ZM383 315Q383 436 304 436Q259
436 233 395T206 283H356Q371 283 377 290T383 315ZM462 541H395L287 634L178 541H111L232 719H341L462 541Z" />
<glyph unicode="&#xeb;" glyph-name="edieresis" horiz-adv-x="574" d="M540 144Q475 -15 302 -15Q179 -15 106 54T32 232T108 414T301 488Q410 488 475 422T540 244V228H205Q205 137 242 95T341 53Q390 53 425 79T491 164L540 144ZM383 315Q383 436 304 436Q259
436 233 395T206 283H356Q371 283 377 290T383 315ZM250 631Q250 601 229 581T179 560T130 581T109 631T130 680T180 701Q208 701 229 681T250 631ZM465 631Q465 601 444 581T394 560T345 581T324 631T345 680T395 701T444 681T465 631Z" />
<glyph unicode="&#xec;" glyph-name="igrave" horiz-adv-x="370" d="M341 0H28V51H42Q87 51 96 58T106 98V321Q106 388 97 401T42 415H28V466L263 473V97Q263 66 272 59T325 51H341V0ZM267 535H203L56 622Q20 643 20 674Q20 695 36 709T77 724Q99 724 113 715T154
673L267 535Z" />
<glyph unicode="&#xed;" glyph-name="iacute" horiz-adv-x="370" d="M341 0H28V51H42Q87 51 96 58T106 98V321Q106 388 97 401T42 415H28V466L263 473V97Q263 66 272 59T325 51H341V0ZM349 674Q349 643 313 622L166 535H102L215 673Q241 705 255 714T292 724Q316
724 332 710T349 674Z" />
<glyph unicode="&#xee;" glyph-name="icircumflex" horiz-adv-x="370" d="M341 0H28V51H42Q87 51 96 58T106 98V321Q106 388 97 401T42 415H28V466L263 473V97Q263 66 272 59T325 51H341V0ZM360 541H293L185 634L76 541H9L130 719H239L360 541Z" />
<glyph unicode="&#xef;" glyph-name="idieresis" horiz-adv-x="370" d="M341 0H28V51H42Q87 51 96 58T106 98V321Q106 388 97 401T42 415H28V466L263 473V97Q263 66 272 59T325 51H341V0ZM148 631Q148 601 127 581T77 560T28 581T7 631T28 680T78 701Q106 701
127 681T148 631ZM363 631Q363 601 342 581T292 560T243 581T222 631T243 680T293 701T342 681T363 631Z" />
<glyph unicode="&#xf0;" glyph-name="eth" horiz-adv-x="611" d="M579 246Q579 130 503 58T304 -15Q185 -15 108 56T31 236Q31 342 109 415T301 488Q324 488 346 482Q291 583 225 640L109 568L82 611L184 676Q153 707 82 744L114 783Q171 762 228 730Q229 730
233 727T243 721T251 717L376 793L404 748L296 683Q579 468 579 246ZM406 235Q406 436 306 436Q204 436 204 236Q204 37 305 37Q353 37 379 88T406 235Z" />
<glyph unicode="&#xf1;" glyph-name="ntilde" horiz-adv-x="685" d="M668 0H363V51Q407 51 419 59T432 97V297Q432 395 359 395Q332 395 308 379T272 336Q256 304 256 241V97Q256 68 268 60T325 51V0H20V51H34Q80 51 89 58T99 98V318Q99 388 90 401T35 415H20V466L249
473V385Q286 441 327 464T427 488Q509 488 551 440Q589 399 589 311V98Q589 66 598 59T654 51H668V0ZM534 696Q527 638 491 600T408 561Q382 561 364 567T307 594Q268 615 247 615Q217 615 203 565H153Q162 624 195 662T272 700Q306 700 368 670Q419 646 439 646Q455
646 464 656T485 696H534Z" />
<glyph unicode="&#xf2;" glyph-name="ograve" horiz-adv-x="611" d="M579 341T579 234T501 56T304 -15T109 56T31 236Q31 344 110 416T308 488Q422 488 500 415ZM406 235Q406 436 306 436Q204 436 204 236Q204 37 305 37Q353 37 379 88T406 235ZM388 535H324L177
622Q141 643 141 674Q141 695 157 709T198 724Q220 724 234 715T275 673L388 535Z" />
<glyph unicode="&#xf3;" glyph-name="oacute" horiz-adv-x="611" d="M579 341T579 234T501 56T304 -15T109 56T31 236Q31 344 110 416T308 488Q422 488 500 415ZM406 235Q406 436 306 436Q204 436 204 236Q204 37 305 37Q353 37 379 88T406 235ZM470 674Q470 643
434 622L287 535H223L336 673Q362 705 376 714T413 724Q437 724 453 710T470 674Z" />
<glyph unicode="&#xf4;" glyph-name="ocircumflex" horiz-adv-x="611" d="M579 341T579 234T501 56T304 -15T109 56T31 236Q31 344 110 416T308 488Q422 488 500 415ZM406 235Q406 436 306 436Q204 436 204 236Q204 37 305 37Q353 37 379 88T406 235ZM481 541H414L306
634L197 541H130L251 719H360L481 541Z" />
<glyph unicode="&#xf5;" glyph-name="otilde" horiz-adv-x="611" d="M579 341T579 234T501 56T304 -15T109 56T31 236Q31 344 110 416T308 488Q422 488 500 415ZM406 235Q406 436 306 436Q204 436 204 236Q204 37 305 37Q353 37 379 88T406 235ZM497 696Q490 638
454 600T371 561Q345 561 327 567T270 594Q231 615 210 615Q180 615 166 565H116Q125 624 158 662T235 700Q269 700 331 670Q382 646 402 646Q418 646 427 656T448 696H497Z" />
<glyph unicode="&#xf6;" glyph-name="odieresis" horiz-adv-x="611" d="M579 341T579 234T501 56T304 -15T109 56T31 236Q31 344 110 416T308 488Q422 488 500 415ZM406 235Q406 436 306 436Q204 436 204 236Q204 37 305 37Q353 37 379 88T406 235ZM269 631Q269
601 248 581T198 560T149 581T128 631T149 680T199 701T248 681T269 631ZM484 631Q484 601 463 581T413 560T364 581T343 631T364 680T414 701Q442 701 463 681T484 631Z" />
<glyph unicode="&#xf7;" glyph-name="divide" horiz-adv-x="606" d="M562 200H44V300H562V200ZM397 431Q397 392 370 365T303 337T237 364T209 431Q209 469 236 497T303 525T369 497T397 431ZM397 70Q397 31 370 4T303 -24T237 3T209 70Q209 108 236 136T303 164T369
136T397 70Z" />
<glyph unicode="&#xf8;" glyph-name="oslash" horiz-adv-x="611" d="M579 234Q579 127 501 56T305 -15Q249 -15 198 3L144 -90H86L152 24Q96 55 64 112T31 236Q31 342 109 415T302 488Q360 488 411 469L465 563H523L456 447Q579 368 579 234ZM372 403Q345 436
305 436Q204 436 204 235Q204 174 214 130L372 403ZM406 235Q406 298 396 343L238 71Q265 37 304 37Q353 37 379 88T406 235Z" />
<glyph unicode="&#xf9;" glyph-name="ugrave" horiz-adv-x="685" d="M667 11L434 0V82Q391 29 351 7T257 -15Q151 -15 109 71Q99 92 96 113T93 191V318Q92 389 84 402T29 415H13V466L250 473V185Q250 128 266 103T321 78Q349 78 373 93T410 135Q427 168 427 238V318Q427
388 418 401T363 415H347V466L584 473V108Q584 81 594 73T639 65H667V11ZM425 535H361L214 622Q178 643 178 674Q178 695 194 709T235 724Q257 724 271 715T312 673L425 535Z" />
<glyph unicode="&#xfa;" glyph-name="uacute" horiz-adv-x="685" d="M667 11L434 0V82Q391 29 351 7T257 -15Q151 -15 109 71Q99 92 96 113T93 191V318Q92 389 84 402T29 415H13V466L250 473V185Q250 128 266 103T321 78Q349 78 373 93T410 135Q427 168 427 238V318Q427
388 418 401T363 415H347V466L584 473V108Q584 81 594 73T639 65H667V11ZM507 674Q507 643 471 622L324 535H260L373 673Q399 705 413 714T450 724Q474 724 490 710T507 674Z" />
<glyph unicode="&#xfb;" glyph-name="ucircumflex" horiz-adv-x="685" d="M667 11L434 0V82Q391 29 351 7T257 -15Q151 -15 109 71Q99 92 96 113T93 191V318Q92 389 84 402T29 415H13V466L250 473V185Q250 128 266 103T321 78Q349 78 373 93T410 135Q427 168 427
238V318Q427 388 418 401T363 415H347V466L584 473V108Q584 81 594 73T639 65H667V11ZM518 541H451L343 634L234 541H167L288 719H397L518 541Z" />
<glyph unicode="&#xfc;" glyph-name="udieresis" horiz-adv-x="685" d="M667 11L434 0V82Q391 29 351 7T257 -15Q151 -15 109 71Q99 92 96 113T93 191V318Q92 389 84 402T29 415H13V466L250 473V185Q250 128 266 103T321 78Q349 78 373 93T410 135Q427 168 427
238V318Q427 388 418 401T363 415H347V466L584 473V108Q584 81 594 73T639 65H667V11ZM306 631Q306 601 285 581T235 560T186 581T165 631T186 680T236 701Q264 701 285 681T306 631ZM521 631Q521 601 500 581T450 560T401 581T380 631T401 680T451 701T500 681T521
631Z" />
<glyph unicode="&#xfd;" glyph-name="yacute" horiz-adv-x="611" d="M598 422Q567 420 548 403T507 340L332 -37Q291 -126 244 -166T134 -206Q78 -206 44 -181T10 -114Q10 -77 35 -52T97 -27Q130 -27 151 -46T172 -95Q172 -104 168 -115T163 -132Q163 -138 172
-138Q214 -139 257 -59L280 -16L75 382Q62 407 52 414T14 422V473H298V422H280Q245 422 245 401Q245 390 253 374L359 158L442 341Q451 363 451 382Q451 422 388 422H373V473H598V422ZM500 674Q500 643 464 622L317 535H253L366 673Q392 705 406 714T443 724Q467
724 483 710T500 674Z" />
<glyph unicode="&#xfe;" glyph-name="thorn" horiz-adv-x="667" d="M632 249Q632 137 565 61T396 -15Q312 -15 254 50V-105Q254 -135 267 -143T330 -152H341V-202H18V-152H32Q78 -152 87 -145T97 -105V574Q97 645 89 658T33 672H18V722L254 736V409Q288 452 323
470T410 488Q506 488 569 420T632 249ZM459 237Q459 413 366 413Q311 413 282 366T253 229Q253 145 280 99T358 53Q407 53 433 100T459 237Z" />
<glyph unicode="&#xff;" glyph-name="ydieresis" horiz-adv-x="611" d="M598 422Q567 420 548 403T507 340L332 -37Q291 -126 244 -166T134 -206Q78 -206 44 -181T10 -114Q10 -77 35 -52T97 -27Q130 -27 151 -46T172 -95Q172 -104 168 -115T163 -132Q163 -138
172 -138Q214 -139 257 -59L280 -16L75 382Q62 407 52 414T14 422V473H298V422H280Q245 422 245 401Q245 390 253 374L359 158L442 341Q451 363 451 382Q451 422 388 422H373V473H598V422ZM299 631Q299 601 278 581T228 560T179 581T158 631T179 680T229 701T278
681T299 631ZM514 631Q514 601 493 581T443 560T394 581T373 631T394 680T444 701Q472 701 493 681T514 631Z" />
</font>
</defs>
</svg>
